<svg width="1000" height="1000" viewBox="0 0 1000 1000" fill="none" xmlns="http://www.w3.org/2000/svg">
<rect width="1000" height="1000" rx="300" fill="white"/>
<path d="M197.852 694.426V289.738C197.852 278.117 193.522 269.344 184.863 263.42C178.939 259.546 175.977 254.875 175.977 249.406V234.367C175.977 229.126 178.939 226.506 184.863 226.506H308.252L346.875 475.676L385.498 226.506H510.254C515.267 226.506 517.773 228.898 517.773 233.684V249.406C517.773 254.647 514.811 259.318 508.887 263.42C500.228 269.572 495.898 278.345 495.898 289.738V694.426C495.898 706.275 500.342 715.161 509.229 721.086C514.925 724.96 517.773 729.517 517.773 734.758V750.139C517.773 755.38 514.811 758 508.887 758H406.006C401.221 758 398.828 755.607 398.828 750.822V734.758C398.828 729.745 401.676 725.188 407.373 721.086C416.26 714.934 420.703 706.047 420.703 694.426V280.168L346.875 758H319.531L246.729 280.168V694.426C246.729 706.275 251.058 715.161 259.717 721.086C265.641 724.96 268.604 729.517 268.604 734.758V750.139C268.604 755.38 265.641 758 259.717 758H183.496C178.483 758 175.977 755.607 175.977 750.822V734.758C175.977 729.745 178.939 725.188 184.863 721.086C193.522 714.934 197.852 706.047 197.852 694.426ZM641.162 293.84L637.744 270.598C636.605 263.078 636.035 258.863 636.035 257.951C636.035 255.673 637.744 253.736 641.162 252.141L698.926 225.139C699.837 224.683 700.863 224.455 702.002 224.455C705.192 224.455 707.243 226.506 708.154 230.607L801.123 694.084C802.718 702.515 804.655 708.553 806.934 712.199C809.44 715.845 814.111 719.719 820.947 723.82C826.188 727.01 828.809 730.656 828.809 734.758V749.797C828.809 755.266 826.644 758 822.314 758H708.154C702.002 758 698.926 755.266 698.926 749.797V734.758C698.926 729.517 702.572 725.074 709.863 721.428C718.75 716.643 723.193 710.148 723.193 701.945C723.193 699.667 722.965 697.046 722.51 694.084L708.154 622.648H618.945L604.59 691.35C603.906 694.312 603.564 696.477 603.564 697.844C603.564 704.68 608.691 712.199 618.945 720.402C625.553 725.871 628.857 730.656 628.857 734.758V749.797C628.857 755.266 625.553 758 618.945 758H547.51C539.535 758 535.547 755.266 535.547 749.797V732.023C535.547 727.238 538.053 723.365 543.066 720.402C552.409 714.706 558.561 705.021 561.523 691.35L641.162 293.84ZM664.404 403.557L628.857 578.898H698.926L664.404 403.557Z" fill="black"/>
</svg>
